# xmcd
#
# Track frame offsets:
# 150
# 19264
# 36584
# 55248
# 72184
# 88563
# 113584
# 134669
# 155057
# 175135
# 199451
#
# Disc length: 3016 seconds
#
#
# Revision: 0
# Processed by: cddbd v1.5.1PL2 Copyright (c) Steve Scherf et al.
# Submitted via: FreeRIP 2.944 
#
DISCID=a00bc60b
DTITLE=Joe veras - Carta de verano
DYEAR=2003
DGENRE=Latin
TTITLE0=intentalo tu
TTITLE1=como me duele
TTITLE2=cartas del verano
TTITLE3=cloussp
TTITLE4=me voy
TTITLE5=coje cuadre
TTITLE6=me siento solo
TTITLE7=por ti
TTITLE8=que bien lo hiciste
TTITLE9=ahora
TTITLE10=como tiene que ser
EXTD=
EXTT0=
EXTT1=
EXTT2=
EXTT3=
EXTT4=
EXTT5=
EXTT6=
EXTT7=
EXTT8=
EXTT9=
EXTT10=
PLAYORDER=
